<?xml version="1.0" encoding="UTF-8"?>
<svg xmlns="http://www.w3.org/2000/svg" viewBox="0 0 100 100" width="100" height="100">
  <defs>
    <linearGradient id="kbGrad" x1="0%" y1="0%" x2="0%" y2="100%">
      <stop offset="0%" style="stop-color:#6366f1;stop-opacity:0.9"/>
      <stop offset="100%" style="stop-color:#4f46e5;stop-opacity:0.9"/>
    </linearGradient>
  </defs>
  <circle cx="50" cy="50" r="46" fill="url(#kbGrad)"/>
  <circle cx="50" cy="50" r="43" fill="none" stroke="rgba(255,255,255,0.3)" stroke-width="2"/>
  <!-- 键盘图标 -->
  <rect x="22" y="32" width="56" height="36" rx="4" fill="none" stroke="white" stroke-width="2.5" opacity="0.9"/>
  <rect x="28" y="38" width="8" height="6" rx="1" fill="white" opacity="0.8"/>
  <rect x="38" y="38" width="8" height="6" rx="1" fill="white" opacity="0.8"/>
  <rect x="48" y="38" width="8" height="6" rx="1" fill="white" opacity="0.8"/>
  <rect x="58" y="38" width="12" height="6" rx="1" fill="white" opacity="0.8"/>
  <rect x="28" y="46" width="8" height="6" rx="1" fill="white" opacity="0.8"/>
  <rect x="38" y="46" width="8" height="6" rx="1" fill="white" opacity="0.8"/>
  <rect x="48" y="46" width="8" height="6" rx="1" fill="white" opacity="0.8"/>
  <rect x="58" y="46" width="12" height="6" rx="1" fill="white" opacity="0.8"/>
  <rect x="28" y="54" width="12" height="6" rx="1" fill="white" opacity="0.8"/>
  <rect x="42" y="54" width="16" height="6" rx="1" fill="white" opacity="0.8"/>
  <rect x="60" y="54" width="10" height="6" rx="1" fill="white" opacity="0.8"/>
</svg>

